<svg id="Layer_1" data-name="Layer 1" xmlns="http://www.w3.org/2000/svg" viewBox="0 0 1851.27 1852.05"><defs><style>.cls-1{fill:#b3ddff;}.cls-2{fill:#34a1ea;}.cls-3{fill:#2f89d3;}.cls-4{fill:#82c9f9;}.cls-5{fill:#66c3f7;}.cls-6{fill:#45bef4;}.cls-7{fill:#0074ff;}.cls-8{fill:#002e7f;}.cls-9{fill:#399cff;}.cls-10{fill:#0267cc;}.cls-11{fill:none;stroke:#000;stroke-miterlimit:10;stroke-width:6px;}.cls-12{fill:#00314c;}</style></defs><title>vhl</title><circle class="cls-1" cx="925.63" cy="925.63" r="922.63"/><path class="cls-2" d="M63.15,1227.57l1796.36,1.76c-22.57,84.38-88,282.83-274.11,451.86-234.91,213.36-505.07,237.24-585.4,241.36-78.32,3.53-330.63,5-575.32-168C158.67,1566.47,81.44,1299.29,63.15,1227.57Z" transform="translate(-40.74 -71.4)"/><path class="cls-3" d="M101.62,1319.39l1734.69-14.26c-30.8,85.09-100.09,239.42-250.91,376.06C1353.81,1891,1086.24,1917.58,1000,1922.55c-88.25,2.1-287.53-5.31-495.19-126.46C236.26,1639.42,131.23,1396.13,101.62,1319.39Z" transform="translate(-40.74 -71.4)"/><path class="cls-4" d="M756.6,1229.62l397.27-3.07Q1162,1331.3,1170.21,1436l-157.27,33.59,182.8,41.87-330.89,15.32,419.75,25.53L982.3,1614l252.25,59.89-233.87,12.26,114.38,69.44-177.7,32.69,104.17,54.12-46,10.22,97,47-92.6,23-110.64-10.72,77-13.28s-180.16-9.19-78-30.64l102.13-21.44-74.56-34.73-209.36-24.51,313.54-41.87L736.17,1680l352.34-16.34-282.89-41.87s583.15-13.28,235.91-34.73L694.3,1565.62l170.55-60.26-162.38-20.42,135.83-8.17-165.45-15.49,186.84-33.93-202.16-41.48Q707.06,1307.75,756.6,1229.62Z" transform="translate(-40.74 -71.4)"/><path class="cls-5" d="M1012.94,1469.62l182.8,41.87-330.89,15.32,419.75,25.53L982.3,1614l252.25,59.89-233.87,12.26,114.38,69.44-177.7,32.69,104.17,54.12-46,10.22,97,47-92.6,23-110.64-10.72,77-13.28s-180.16-9.19-78-30.64l102.13-21.44-74.56-34.73-209.36-24.51,313.54-41.87L736.17,1680l352.34-16.34-282.89-41.87s583.15-13.28,235.91-34.73L694.3,1565.62l170.55-60.26-162.38-20.42,135.83-8.17-165.45-15.49,174.63-34.19-95-23.86-8.1-83.72,412.53-5.13-47,111.32-38.7,30.26Z" transform="translate(-40.74 -71.4)"/><path class="cls-6" d="M1012.94,1469.62l182.8,41.87-330.89,15.32,419.75,25.53L982.3,1614l252.25,59.89-233.87,12.26,114.38,69.44-177.7,32.69,104.17,54.12-46,10.22,97,47-92.6,23-110.64-10.72,77-13.28s-180.16-9.19-78-30.64l102.13-21.44-74.56-34.73-209.36-24.51,313.54-41.87L736.17,1680l352.34-16.34-282.89-41.87s583.15-13.28,235.91-34.73L694.3,1565.62l170.55-60.26-162.38-20.42,135.83-8.17-165.45-15.49,174.63-34.19c-1.74-.37-2.6-.71-2.6-1q.14-4.49,233.42-2.4l8.17,15.32-15.21,17Z" transform="translate(-40.74 -71.4)"/><path class="cls-7" d="M312.34,1435.91c-4.61-.84-10.69-2.74-13.28-7.65-4.21-8,4.36-17.4.51-23-1.84-2.68-6.83-4.88-21.15-1.84L216.34,1344a16.46,16.46,0,0,0,3.87-8.48c1.31-10.64-9.54-23-27.36-29.82l-32.68-13.79a73.49,73.49,0,0,1,29.62-48,58.31,58.31,0,0,0-2.56-11.23c-5.18-15.47-14.53-21.24-20.71-31.39-4.1-6.74-8.12-17.59-6.35-35,9.36,2.14,13.44.64,15.32-1.53,4.42-5.13-2.3-15.31,2.55-19.92,3-2.85,6.39.3,11.24-2.55,6.41-3.78,4.48-11.64,10.21-15.83,2.61-1.91,7.13-3.3,15.54-.91l48.29-35.86q5.65-27.9,11.32-55.81c-10.11-2.16-12.88-5.08-13.36-7.51-.93-4.63,6.43-7.78,7.15-14.81.56-5.59-3.38-10.66-7.15-14.29q3.57-23.24,7.15-46.47l43.91-28.26q12.77-29.49,25.52-59-2.81-1.81-5.6-3.64l10.83-53.18L359.32,814l1.53-23.49,7.62-4.77,10.25,10.9q-1.19-10.38-2.39-20.76l8.52-22.14,9.7,11.75q4.35,9.43,8.68,18.89L420.6,770l7.14-22.47L443.57,742l22-48.51c-8-15.55-16.72-22.3-23.49-25.54a80.32,80.32,0,0,1-9.48-4.74,61.34,61.34,0,0,1-17.07-15.68l21.45-47,7.15,8.17,15.31-22.47,15.32,5.11L491.06,574l5.11,7.15,23.49-19.41h8.17l13.79-6.13,13.78,7.66,8.69-7.66L604.43,527,634,554l25.53-9.19,27.07,21.45,5.62-9.7,14.29,4.08L713.19,550l51.07,46.47L753,726.13l42.89,20.42L784.17,695l6.13-51.07-5.62-12.76,2.55-39.83L800,582.13l5.62,4.59L818.89,574l19.41,2,5.1,12.77,9.2,1,5.61,9.7,9.7-11.75,9.71,6.13,10.72,16.34,24,24.51L924.09,626l15.82,11.24v14.81l17.88,18.38,1.87,13.79-8,16.34,2.55,5.61L940.6,722.38l12.59,19.41,29.45,22.12-7.49-24.68,6.3-21.27,3.91-13.28,9.53-3.4,17.54-18.22,6.8-19.06,2.73-26.72,11.57-20.43,13.11-28.59,34.72-7,47.32,9.87,4.26-17.87,4.59-11.58,32-6.47L1184.22,544l28.38,7.49,10.21,9.53,29.62,6,15.48,23.32,11.24,76.25,53.11,65.54,63.65,92.08,38.81,42,16.85-3.4,45.79,36.42,23.49.51L1598,970.55l-5.62,13.79,79,43.57,22.13-7.14,67.06,53.78,5.45,18,33.7,6.46,24.68,27.07,25,38.47-22.47,17.87-27.57,44.42c-2.22,1.24-22.69,13.12-25.53,36.94-2.37,19.86,8.49,39.83,27.4,49.87l-6.3,12.94,2.73,10-14.81,15.83-75.58,1.87-58.55,13.28-34.72,18L1579.57,1423l-28.42,22-487.49,16.34,27.23-19.07-33-47.15-32.34-11.4-13.79-20.6-4.08-40.34-1-19.4,4.42-4.94,3.75-25.87,3.91-1.36-.17-13.45-6.12-14.47,10.89-21.61-18.55-30.13-2.56-12.77,7.83-4.25,6.81-16.85,4.43-5.79,7.66-8.51-2.56-21.45,12.43-9.19,4.08-8.51-9.19-7-3.57-12.42-8.34-17-12.09-14.63,14.13-65,6.13-19.58-2.22-60.08-6-5.45-4.09-15,8.34-5.79-9-5.44-4.76-20.6L995.57,840,947.4,912l-24,32.68-22.8,16.85,4.76,53.79,7.49.17L929,1044.26l10-.86,3.75,17.37-3.92,21.61L922,1125.79l-6.47,47.15L910,1203.06,898,1240.85l-2.55,33.7,21.79,15-28.09,47.15-.85,20.09-76.94,17.36-5.95,20.25-13.62,3.24-9.36,11.57-31.66-1.53-11.24,11.57Z" transform="translate(-40.74 -71.4)"/><path class="cls-8" d="M182.13,1300.6,586,1305.19l43.41,31.15,44.93-35.74,43.41,3.57L703.49,1345H753l4.6-26,34.21-4.09,28.08,1-15.31,79.15c1.92-6.71,4.17-13.71,6.8-20.93a318.85,318.85,0,0,1,18.22-40.85l46,.51-40.34,19.91,24,14.81-47.83,5.62-6.12,21.27-13.45,2.22-9.36,11.57-31.66-1.53-10.55,11.4-420.43,16.56a26.65,26.65,0,0,1-14-1.24c-2.14-.82-4.45-1.75-6.13-4.08-2-2.81-1.92-6-1.83-8.17.23-5.89,3-7.7,2.52-13.45-.17-2.09-.68-3.6-1.89-4.53a4.86,4.86,0,0,0-3.05-.92l-17.07.21-14.59-8.89L216.34,1344l2.84-3.81-2.33-2.83Z" transform="translate(-40.74 -71.4)"/><polygon class="cls-8" points="1009.98 1319.58 1092.71 1305.79 1128.96 1312.68 1151.43 1297.11 1281.64 1287.92 1302.07 1313.45 1464.96 1294.05 1530.83 1341.54 1550.75 1343.58 1518.07 1379.32 1041.13 1391.58 1052.88 1373.2 1009.98 1319.58"/><path class="cls-9" d="M761.7,725.11V602.55l-48-38.81L623.83,714.89l52.08,34.73-26.55,144,62.3,99.06,3.06,127.66,30.64,66.38,99.07,62.3-13.28,5.11L921,1296l-34.72-42.89,27.57-29.62,7.15-91.92,14.3-55.14v-24.52l-40.85-57.19s-40.85,36.77,32.68-58.21l73.53-95L970,754.72,931.23,719l13.28-53.11-62.3-55.15-61.27-25.53,45.95,49L823,658.72,796.43,721l35.74-38.81,58.21,252.26-29.61-4.6-39.83-59.74L812.26,962,825,981.45l-18.38,19.4-5.11,23.49-42.89-52.08-2,66.38-25.54,39.83-7.15-94L665.7,891.57l19.41-146L668.77,720l50-136.85,34.72,23.49Z" transform="translate(-40.74 -71.4)"/><path class="cls-9" d="M1012.94,1291.91l11.23-39.82,40.85,39.82,33.7-33.7,19.41-25.53,20.42,41.87,18.39-12.25,11.23-94,41.87,61.79,56.17-11.75-52.08-63.32-42.9-47-26.55-17.37L1132.43,1054l36.76-8.17,56.17-36.77-143-56.17L1099.74,913l33.71,30.64-39.83-47L1103.83,865l35.74,8.17,5.11,33.7,39.83-25.53,23.49,8.17-21.45,56.17-29.61,19.41,82.72,45.95-3.06,26.56-66.39,29.61,12.26,19.41h32.68l-11.24,37.79,62.3,73.53,24.51-7.15,92.94-10.21,104.17,73.53-6.13-42.9,1-42.89-149.1-36.77-6.13-19.4,128.68,2,13.28-28.59,18.38,1,10.21-20.43-18.38-77.61L1449,1027.4l-39.83-19.4-12.25,22.47,8.17,34.72L1306,1044.77h-26.55l38.81-23.49,40.85-53.11,59.23,6.13-14.29-25.53H1366.3l29.61-39.83,11.24,29.61-2-23.49,13.27-9.19,51.07,31.66v14.3l-54.13-14.3,16.34,40.85,30.64-15.32,4.08,21.45,21.45-6.13,4.08-27.57,25.54,2-9.19-30.3,20.42,44.6,59.23,16.34,5.11,32.68-57.19-8.17,20.43,37.79,31.65-22.47,28.6-27.58,56.17,37.79v30.64l32.68,47L1736,1150l-72.51-60.26-5.11-33.7-57.19-14.3-35.74,22.47-14.3,26.55,31.66,13.28,28.59,17.36-62.29-10.21V1153l-20.43-68.42,9.19,66.38,9.19,30.64,43.62-3.64,17.66-1.47,4.09-33.7-50-10.21,26.56,83.74-34.73-29.62,59.24,8.17,16.34,54.13,21.44-41.87,43.92,36.76-1,35.75,70.47,12.25,13.27,5.11,20.43,36.77-18.39,21.44v-24.51s-46-55.15-119.48-8.17l-73.54,47-51.06-30.64-48-5.1s53.11-68.43,0-28.6L1434.72,1345h-57.19l-37.79-39.83-64.34,14.3-60.25-9.19-60.26,43.91-41.87-14.3Z" transform="translate(-40.74 -71.4)"/><path class="cls-10" d="M198,1237.79l-38.81-34.73,12.25-49,35.75,32.68-12.26-49h48l32.68,9.19,11.24-29.61L307.23,1152l22.47-26.55-55.15-30.64v-20.43l39.83,17.36,3.07-28.59,17.36,19.4s168.51-10.21,58.21-46l-110.3-35.75,29.62-55.15,26.55-10.21L344,980.43l57.19,11.23,4.09-86.81-40.85-13.28-5.11-48-4.09-32.68h18.39l1,52.09,25.53,26.55,22.47-78.64,7.82,72.51L439,810.89l11.23-30.63L468.6,739.4l25.53-48-16.34,99.07-17.36,61.27h19.4L494.13,769v79.66l24.51-15.32-15.32-58.21,29.62,53.11,35.74-101.11v97l22.47,54.13L537,841.53,464.51,864l-3.06,30.64L441,880.34l84.77,11.23,65.36,146,67.4,68.42,78.64,41.87-83.74-32.68-61.28-64.34L523.74,903.83,439,894.64l-21.45,4.08,19.41,57.19-21.45-38.8L426.72,958l-18.38-13.28,11.23,56.17-81.7,3.06L441,990.64,469.62,958l59.23,37.78,1,97-23.49,18.38-23.49-88.85-27.57-31.66,8.17,110.3-15.32-61.28-21.45,57.19-9.19-17.36-79.66,57.19,127.66,58.21,62.3,5.11c14.16,1.16,28.22,11.57,47.5,8.19a62.82,62.82,0,0,0,19.9-7.17l80.68,24.51,44.21-.48A89.26,89.26,0,0,1,776,1262.3l88.85,36.76L777,1271.49c-3.26,1.53-19.22,8.61-37.79,2-22.37-7.92-29.77-29-30.63-31.66l-34.73-7.15-68.42,1c-33.12,36.44-71.75,43.61-85.79,30.64-10.79-10-9-33.62,0-56.17L460,1199.88l-125.14-53q-15.31,26.05-30.64,52.09l-3.06,35.74H271.49l-16.34,31.66H242.89L249,1228.6l-17.36,35.74-14.3-4.08s10.21-68.43-4.08-34.73-13.28,55.15-14.3,33.7Z" transform="translate(-40.74 -71.4)"/><polygon class="cls-10" points="1032.45 1197.03 1080.45 1183.75 1116.2 1190.39 1136.62 1059.15 1097.81 1076.52 1104.96 1095.92 1098.83 1128.09 1084.54 1086.73 1078.41 1045.88 1040.62 1070.39 1052.88 1020.35 1070.24 1029.54 1112.11 1015.24 1089.64 987.66 1107 978.47 1155 978.47 1097.81 959.07 1053.9 940.68 1093.73 973.37 1080.45 988.68 1086.58 1013.2 1074.32 1019.32 1056.96 987.66 1032.45 1068.86 1066.15 1089.79 1064.11 1129.62 1032.45 1148 998.75 1089.79 979.35 1133.71 999.77 1170.47 1005.9 1126.56 1011 1180.68 1036.54 1157.2 1040.62 1183.75 1032.45 1197.03"/><path class="cls-10" d="M1015,1058l30.64,55.15,12.25-62.3-9.19-24.51L1064,986.55l11.23-47s-31.66,54.13-30.12,36.77l1.53-17.36-26.55,36.25-12.26,53.62Z" transform="translate(-40.74 -71.4)"/><path class="cls-10" d="M1248.85,746.55l-16.34-48-36.77-34.72s-24.51-2-34.72-30.64-9.19,46-9.19,46l-11.23-65.36-25.54-12.26v47l-29.61-67.4Z" transform="translate(-40.74 -71.4)"/><path class="cls-10" d="M1041.53,616.85l-21.44,17.36,4.08,29.62-16.34,19.4-23.49,18.39-8.17,35.74,7.15,24.51,16.68-48L1025.19,767l1-34.72,15.32,14.29-15.32,104.17s20.43,53.11,49,54.13l28.6,1-62.3-47,10.21-112.34,17.37-15.32-14.3-5.1-1-27.58L1040,724.09l-19.91,1-12.26-23.49,27.57-37.79Z" transform="translate(-40.74 -71.4)"/><path class="cls-10" d="M1069.11,637.28l22.46,8.17s-11.42-9.23-15-6.36c-2.14,1.74-.09,7.48,3.73,17.59,3.19,8.44,7.47,19.55,12.77,32.68q-5.37,15.06-10.73,30.13v99.57l13.28-8.17s9.19-22.46,8.17-21.44l-1,1s-23.49-10.21,1-10.21h24.51L1112,786.38l-4.09,19.41,35.75-5.36q-6.39,10.46-12.77,20.93-1.38,8.57-2.77,17.12L1120.17,864l9.7-5.87,5.62-10.47a16.91,16.91,0,0,0,2.81,6.38c3.59,4.93,8.72,5.86,14.81,8.68a55.51,55.51,0,0,1,14,9.45l-17.36,5.11-5.62-5.37-30-9.14q4-20.19,8-40.39l5.11-2.81,8.94-14-24.77,5.36-29.11,8.17-5.1-98,10.46-30.64-13.27-24.76,2-7.15Z" transform="translate(-40.74 -71.4)"/><polygon class="cls-10" points="1054.66 852.6 1072.79 854.39 1093.22 876.86 1093.22 881.71 1102.66 883.24 1104.96 880.17 1129.73 889.88 1142.49 894.73 1148.62 901.88 1152.45 901.88 1153.73 908.26 1151.68 908.26 1162.66 920.51 1155 909.28 1155 901.11 1149.13 899.58 1144.54 892.94 1130.75 888.09 1121.3 880.43 1108.66 878.13 1107 872.77 1098.32 873.28 1073.81 850.05 1054.66 852.6"/><path class="cls-10" d="M1036.43,900s4.85,3.06,5.1,3.06l7.15,15.07,13,1.53a10,10,0,0,1,2.81-10.47,9.54,9.54,0,0,1,6.64-2c-.21-.17-4-3.19-7.92-1.79s-6.23,6.37-4.59,11.49l-8.68-1-6.39-15.32Z" transform="translate(-40.74 -71.4)"/><path class="cls-10" d="M1028.26,1144.34l30.12,10.21s.77,11,2.81,10.73l2-.26-6.25,26.37,9.83-23.52,2-8.21-6.13.51-1-8.17,23.06-4.56,58.16,12.33,65.08-3.68,21.7-7.41v14.55l23.24,36.26,43.15-8.43-27.32-2.29-16.09,3.32-19.91-27.32,12.76-1,16.09-15.06-2.81-16.85-.26,17.36-12.51,11-11.74.77-3.32-16.09,1.28-19.66,10.46-12-14,12.51-2.3,20.17-11.23,2.81-9.19,5.11-63.43,4.92-19.55-6.2-1.24-18,32.9-8.56-2.55-11.49,48.51-22.73-52.86,18.9,3.32,13.27-29.9,6.79-39.8,12.36-5.1-4.34s18.89-56.17,18.89-56.42l17.36,13.27,34.15-6.82,22.53,3.76-23-8.42L1129.36,1068l-.76-11.49,15.31-7.4,10.47,11.23L1150,1046l50.56-1.53,13.53-10.21-3.32-7.92,9.7-5.1s6.64-7.15,8.68,0l2,7.15,4.34.51,6.39,32.42,7.66,1.79-.51,11.23,7.66,1.28,1.27-3.57,3.07-.26.51-8.17-10.22-2.81-4.59-2-7.66-31.15-4.85-2.55-.51-8.68,20.42-13-19.66,8.69-2.55-6.9s-13.28-15.57-7.15-1.79l6.13,13.79-6.38-1.79-5.88,3.83-23-15.32,14.81,16.35-3.83,6.12L1208,1033l-7.66,7.41-11.74.76-39.2,3.32-23.73,10.4,1.14,14.62,16.59,16.09-29.61,7.15-30.39-5.88-14.8,47.24,11.05,10.14-17.44,4.92Z" transform="translate(-40.74 -71.4)"/><circle class="cls-11" cx="925.63" cy="925.63" r="922.63"/><polygon class="cls-12" points="275.69 1372.68 878.24 1372.68 935.43 1358.39 253.22 1344.09 275.69 1372.68"/><polygon class="cls-12" points="986.49 1386.98 1537.98 1386.98 1505.3 1358.39 986.49 1386.98"/></svg>